<svg id="Capa_1" enable-background="new 0 0 512 512" height="512" viewBox="0 0 512 512" width="512" xmlns="http://www.w3.org/2000/svg" xmlns:xlink="http://www.w3.org/1999/xlink"><linearGradient id="SVGID_1_" gradientUnits="userSpaceOnUse" x1="256" x2="256" y1="512" y2="0"><stop offset="0" stop-color="#00b59c"/><stop offset="1" stop-color="#32FA58"/></linearGradient><g><g><path d="m451 61h-120v-46c0-8.291-6.709-15-15-15h-120c-8.291 0-15 6.709-15 15v46h-120c-8.291 0-15 6.709-15 15v60c0 8.291 6.709 15 15 15h16.205l28.854 347.245c.644 7.778 7.133 13.755 14.941 13.755h270c7.808 0 14.297-5.977 14.941-13.755l28.854-347.245h16.205c8.291 0 15-6.709 15-15v-60c0-8.291-6.709-15-15-15zm-240-31h90v31h-90zm166.201 452h-242.402l-27.504-331h297.411zm58.799-361h-360v-30h360zm-130.986 216.845 14.487 24.155h-29.751c-8.291 0-15 6.709-15 15s6.709 15 15 15h56.25c5.405 0 10.386-2.9 13.052-7.603s2.593-10.474-.19-15.117l-28.125-46.875c-4.263-7.09-13.447-9.404-20.581-5.142-7.105 4.263-9.405 13.477-5.142 20.582zm-139.014 54.155h56.25c8.291 0 15-6.709 15-15s-6.709-15-15-15h-29.751l14.487-24.155c4.263-7.104 1.963-16.318-5.142-20.581-7.134-4.263-16.318-1.948-20.581 5.142l-28.125 46.875c-2.783 4.644-2.856 10.415-.19 15.117s7.647 7.602 13.052 7.602zm48.53-95.889c7.09 4.248 16.333 1.963 20.581-5.142l20.889-34.819 20.889 34.819c4.27 7.116 13.495 9.393 20.581 5.142 7.104-4.263 9.404-13.477 5.142-20.581l-33.75-56.25c-5.42-9.023-20.303-9.023-25.723 0l-33.75 56.25c-4.263 7.105-1.963 16.319 5.141 20.581z" fill="url(#SVGID_1_)"/></g></g></svg>